<svg width="59" height="59" viewBox="0 0 59 59" fill="none" xmlns="http://www.w3.org/2000/svg">
<rect width="59" height="59" rx="23" fill="black"/>
<path d="M16.5541 18.9374L18.678 16.8213L21.8639 19.9955L21.7884 22.0363L19.74 22.1115L16.5541 18.9374ZM39.9173 16.8213L42.0412 18.9374L38.8554 22.1115L36.8069 22.0363L36.7313 19.9955L39.9173 16.8213ZM19.74 36.924L21.7884 36.9993L21.8639 39.0402L18.678 42.2143L16.5541 40.0982L19.74 36.924ZM17.2829 28.0215L18.678 29.5178L17.2829 31.0141H12.7773V28.0215H17.2829Z" fill="white"/>
<path d="M27.7958 13.0586H31.0585V17.5475L29.2976 19.0438L27.7958 17.5475V13.0586Z" fill="white"/>
<path d="M30.6713 46.3789H27.4086L27.4086 41.8901L29.1694 40.3938L30.6713 41.8901V46.3789Z" fill="white"/>
<path d="M46.9463 43.507C44.6344 41.1628 42.3226 38.8186 39.986 36.4486C42.0323 34.1874 44.0459 31.9626 46.072 29.7239C45.899 29.0537 45.7322 28.4117 45.5574 27.7371C44.6914 28.0049 43.8247 28.2705 42.9584 28.5391C40.2867 29.3688 37.6156 30.1937 34.9443 31.0372C34.6957 31.1153 34.5091 31.0737 34.328 30.8948C32.1519 28.7525 29.9728 26.617 27.7916 24.4849L24.5685 24.4851L24.9659 27.2864C25.3608 28.4445 26.1125 29.0037 26.796 29.6701C29.9926 32.7902 33.1947 35.9011 36.3966 39.01C37.7406 40.3146 39.0804 41.6288 40.4457 42.8888C40.7336 43.1545 41.1115 43.2646 41.4738 43.3349C43.1458 43.6618 44.8398 43.8787 46.6064 43.6846C46.7094 43.6736 46.8152 43.6379 46.9196 43.6146C46.9292 43.5783 46.9372 43.5435 46.9463 43.507Z" fill="white"/>
</svg>
